<?xml version="1.0" encoding="UTF-8"?>
<!DOCTYPE svg PUBLIC "-//W3C//DTD SVG 1.1//EN" "http://www.w3.org/Graphics/SVG/1.1/DTD/svg11.dtd">
<!-- Creator: SignCut DRAW -->
<svg xmlns="http://www.w3.org/2000/svg" xml:space="preserve" width="76mm" height="79mm" version="1.1" style="shape-rendering:geometricPrecision; fill-rule:evenodd; clip-rule:evenodd"
viewBox="0 0 7615 7975"
xmlns:xlink="http://www.w3.org/1999/xlink">
<g>
  <path fill="#16042f" stroke="none" d="M 5313.30,720.50 C 5254.20,872.30 5225.70,1007.90 5219.10,1142.90 C 5196.40,1606.80 5467.20,2051.30 5880.60,2257.10 C 6214.40,2423.20 6600.10,2410.10 6936.60,2262.10 C 6946.70,2266.30 6956.80,2270.50 6966.90,2274.70 C 6968.30,2284.60 6971.20,2294.40 6971.30,2304.50 C 6985.90,3780.90 6968.60,5262.60 6973.50,6739.70 C 6974.20,6951.50 6966.30,7159.30 6861.80,7346.90 C 6721.50,7598.60 6545.30,7770.00 6276.60,7883.60 C 6178.70,7924.90 6065.60,7958.40 5959.80,7959.30 C 4332.10,7973.10 2703.50,7985.20 1075.80,7964.30 C 933.90,7962.40 779.70,7912.70 653.40,7852.60 C 279.90,7674.90 9.00,7285.40 6.10,6871.70 C -5.70,5191.10 2.50,3509.90 6.20,1829.30 C 6.50,1657.40 61.20,1478.80 139.40,1327.70 C 319.50,979.60 689.40,737.10 1075.80,731.40 C 2475.30,725.60 3874.20,732.10 5273.40,728.90 C 5283.80,734.90 5294.30,740.90 5313.30,720.50 Z "/>
  <path fill="#ec7700" stroke="none" d="M 5313.30,720.50 C 5315.90,711.70 5317.80,702.60 5321.30,694.10 C 5401.70,498.80 5556.10,338.40 5722.20,213.10 C 5766.20,179.80 5882.90,120.80 5933.40,99.30 C 6224.80,-24.80 6508.90,-29.80 6804.60,68.90 C 7102.70,168.40 7374.80,407.50 7502.10,694.10 C 7567.10,840.50 7599.40,959.30 7612.00,1116.50 C 7624.00,1266.60 7602.60,1369.20 7577.20,1512.50 C 7570.90,1547.80 7515.00,1690.40 7495.80,1723.70 C 7348.60,1978.60 7214.00,2103.80 6966.90,2274.70 C 6956.80,2270.50 6946.70,2266.30 6936.60,2262.10 C 6600.10,2410.10 6214.40,2423.20 5880.60,2257.10 C 5467.20,2051.30 5196.40,1606.80 5219.10,1142.90 C 5225.70,1007.90 5254.20,872.30 5313.30,720.50 Z "/>
  <path fill="#ffffff" stroke="none" d="M 3346.20,6570.80 C 2917.20,6556.10 2482.70,6419.90 2158.20,6134.00 C 1937.80,5939.80 1812.60,5654.50 1777.70,5366.90 C 1770.90,5311.30 1767.20,5256.00 1765.80,5200.10 C 1782.20,5199.40 1798.60,5198.00 1815.00,5198.00 C 2117.10,5198.00 2419.30,5197.90 2721.50,5197.70 C 2697.20,5575.00 2994.00,5800.90 3346.20,5821.90 C 3570.10,5835.20 3808.80,5812.50 3984.30,5661.70 C 4103.50,5559.20 4119.90,5374.00 4077.40,5234.90 C 4028.40,5074.70 3863.60,4964.70 3715.80,4907.00 C 3167.30,4692.80 2494.90,4572.50 2099.50,4099.70 C 1845.50,3796.00 1809.60,3354.10 1943.60,2990.90 C 2114.10,2528.60 2622.10,2276.40 3082.20,2210.50 C 3509.30,2149.30 3958.50,2193.30 4349.40,2380.50 C 4705.70,2551.10 4961.10,2868.50 5037.70,3254.90 C 5053.60,3335.10 5060.60,3423.10 5059.70,3504.90 L 4098.20,3506.60 C 4093.30,3410.20 4079.90,3317.10 4038.20,3228.50 C 4019.30,3188.50 3950.00,3080.70 3916.60,3055.10 C 3891.50,3035.90 3724.50,2964.30 3689.40,2956.80 C 3407.60,2896.50 3000.60,2903.40 2859.20,3202.10 C 2780.60,3367.90 2847.70,3544.70 2976.60,3656.60 C 3043.80,3715.00 3132.10,3758.50 3214.20,3790.40 C 3819.80,4025.70 4401.00,4095.80 4851.00,4617.00 C 5075.90,4877.40 5107.80,5281.70 5036.10,5604.50 C 4932.30,6071.30 4520.50,6365.30 4085.40,6491.80 C 3847.60,6560.60 3592.40,6579.10 3346.20,6570.80 Z "/>
</g>
</svg>
